<svg xmlns="http://www.w3.org/2000/svg" xmlns:xlink="http://www.w3.org/1999/xlink" width="500" zoomAndPan="magnify" viewBox="0 0 375 374.999991" height="500" preserveAspectRatio="xMidYMid meet" version="1.0"><path fill="#f7770f" d="M 187.699219 246.609375 Z M 55.582031 41.238281 L 79.59375 310.546875 L 187.335938 340.453125 L 295.382812 310.5 L 319.417969 41.238281 Z M 269.53125 102.832031 L 261.410156 193.851562 L 255.785156 256.652344 L 255.292969 262.230469 L 187.546875 281.015625 L 119.894531 262.230469 L 115.265625 210.363281 L 148.417969 210.363281 L 150.773438 236.707031 L 187.59375 246.632812 L 187.6875 246.609375 L 187.710938 246.609375 L 224.4375 236.695312 L 228.292969 193.863281 L 151.195312 193.863281 L 150.539062 186.445312 L 149.027344 169.699219 L 148.242188 160.839844 L 231.222656 160.839844 L 234.246094 127.019531 L 107.847656 127.019531 L 107.191406 119.589844 L 105.679688 102.84375 L 104.894531 93.984375 L 270.339844 93.984375 L 269.542969 102.84375 Z M 269.53125 102.832031 " fill-opacity="1" fill-rule="nonzero"/></svg>