<svg xmlns="http://www.w3.org/2000/svg" xmlns:xlink="http://www.w3.org/1999/xlink" width="500" zoomAndPan="magnify" viewBox="0 0 375 374.999991" height="500" preserveAspectRatio="xMidYMid meet" version="1.0"><path fill="#f7770f" d="M 187.5 62.613281 C 114.890625 62.613281 56.027344 121.476562 56.027344 194.085938 C 56.027344 252.175781 93.691406 301.453125 145.945312 318.832031 C 152.519531 320.039062 154.921875 315.972656 154.921875 312.503906 C 154.921875 309.375 154.804688 299.003906 154.734375 288.035156 C 118.171875 295.980469 110.449219 272.53125 110.449219 272.53125 C 104.460938 257.34375 95.847656 253.300781 95.847656 253.300781 C 83.894531 245.144531 96.75 245.308594 96.75 245.308594 C 109.945312 246.222656 116.90625 258.855469 116.90625 258.855469 C 128.636719 278.953125 147.691406 273.140625 155.167969 269.765625 C 156.363281 261.292969 159.761719 255.480469 163.511719 252.210938 C 134.332031 248.894531 103.628906 237.609375 103.628906 187.230469 C 103.628906 172.863281 108.761719 161.15625 117.152344 151.945312 C 115.816406 148.605469 111.28125 135.234375 118.453125 117.140625 C 118.453125 117.140625 129.480469 113.613281 154.605469 130.617188 C 165.082031 127.6875 176.332031 126.246094 187.5 126.199219 C 198.667969 126.246094 209.917969 127.710938 220.417969 130.640625 C 245.496094 113.613281 256.546875 117.164062 256.546875 117.164062 C 263.730469 135.269531 259.207031 148.628906 257.859375 151.957031 C 266.285156 161.15625 271.371094 172.875 271.371094 187.242188 C 271.371094 237.75 240.621094 248.871094 211.335938 252.128906 C 216.070312 256.207031 220.253906 264.199219 220.253906 276.457031 C 220.253906 294.035156 220.078125 308.203125 220.078125 312.539062 C 220.078125 316.042969 222.46875 320.132812 229.125 318.84375 C 281.332031 301.429688 318.960938 252.164062 318.960938 194.097656 C 318.960938 121.5 260.097656 62.625 187.488281 62.625 Z M 187.5 62.613281 " fill-opacity="1" fill-rule="nonzero"/></svg>