<svg xmlns="http://www.w3.org/2000/svg" xmlns:xlink="http://www.w3.org/1999/xlink" width="500" zoomAndPan="magnify" viewBox="0 0 375 374.999991" height="500" preserveAspectRatio="xMidYMid meet" version="1.0"><path fill="#f7770f" d="M 55.054688 40.066406 L 79.160156 310.453125 L 187.335938 340.488281 L 295.804688 310.417969 L 319.933594 40.078125 L 55.042969 40.078125 Z M 154.992188 110.085938 L 150.199219 162.128906 L 263.53125 162.140625 L 262.722656 171.046875 L 254.929688 258.351562 L 254.4375 263.953125 L 186.421875 282.808594 L 118.5 263.953125 L 113.859375 211.886719 L 147.140625 211.886719 L 149.507812 238.335938 L 186.46875 248.296875 L 223.453125 238.3125 L 227.296875 195.304688 L 113.964844 195.292969 L 114.773438 186.386719 L 122.566406 99.082031 L 125.015625 74.636719 L 257.285156 74.636719 L 258.820312 93.363281 L 263.542969 145.546875 L 230.25 145.546875 L 227.179688 111.304688 L 193.324219 109.265625 L 187.289062 109.265625 L 187.289062 109.21875 L 155.003906 110.085938 Z M 154.992188 110.085938 " fill-opacity="1" fill-rule="nonzero"/></svg>