<svg xmlns="http://www.w3.org/2000/svg" xmlns:xlink="http://www.w3.org/1999/xlink" width="500" zoomAndPan="magnify" viewBox="0 0 375 374.999991" height="500" preserveAspectRatio="xMidYMid meet" version="1.0"><path fill="#f7770f" d="M 238.832031 132.089844 C 246.488281 132.089844 252.757812 125.890625 252.757812 118.289062 C 252.757812 110.6875 246.488281 104.484375 238.832031 104.484375 C 231.175781 104.484375 224.910156 110.6875 224.910156 118.289062 C 224.910156 125.945312 231.109375 132.089844 238.832031 132.089844 Z M 238.832031 132.089844 " fill-opacity="1" fill-rule="nonzero"/><path fill="#f7770f" d="M 225.226562 144.175781 L 252.128906 144.175781 L 252.128906 245.332031 L 225.226562 245.332031 Z M 225.226562 144.175781 " fill-opacity="1" fill-rule="nonzero"/><path fill="#f7770f" d="M 139.636719 211.414062 L 176.03125 211.414062 L 185.871094 245.300781 L 213.417969 245.300781 L 173.410156 112.382812 L 139.96875 112.382812 L 139.96875 125.503906 L 104.882812 245.300781 L 129.800781 245.300781 Z M 157.667969 136.035156 L 171.121094 188.171875 L 144.230469 188.171875 Z M 157.667969 136.035156 " fill-opacity="1" fill-rule="nonzero"/><path fill="#f7770f" d="M 33.304688 36.761719 L 33.304688 334.261719 L 337.136719 334.261719 L 337.136719 36.761719 Z M 314.355469 310.84375 L 56.523438 310.84375 L 56.523438 60.179688 L 314.355469 60.179688 Z M 314.355469 310.84375 " fill-opacity="1" fill-rule="nonzero"/></svg>