<svg xmlns="http://www.w3.org/2000/svg" xmlns:xlink="http://www.w3.org/1999/xlink" width="500" zoomAndPan="magnify" viewBox="0 0 375 374.999991" height="500" preserveAspectRatio="xMidYMid meet" version="1.0"><path fill="#f7770f" d="M 187.476562 338.613281 C 183.527344 338.613281 179.589844 337.582031 176.121094 335.578125 L 139.957031 314.179688 C 134.566406 311.167969 137.203125 310.089844 138.984375 309.46875 C 146.179688 306.972656 147.644531 306.398438 155.320312 302.027344 C 156.128906 301.582031 157.183594 301.746094 158.027344 302.238281 L 185.800781 318.726562 C 186.820312 319.289062 188.226562 319.289062 189.164062 318.726562 L 297.457031 256.230469 C 298.464844 255.65625 299.109375 254.484375 299.109375 253.300781 L 299.109375 128.320312 C 299.109375 127.101562 298.464844 125.953125 297.433594 125.332031 L 189.1875 62.882812 C 188.179688 62.296875 186.855469 62.296875 185.847656 62.882812 L 77.625 125.355469 C 76.570312 125.953125 75.914062 127.136719 75.914062 128.320312 L 75.914062 253.3125 C 75.914062 254.507812 76.570312 255.632812 77.613281 256.207031 L 107.285156 273.339844 C 123.386719 281.390625 133.242188 271.910156 133.242188 262.382812 L 133.242188 138.984375 C 133.242188 137.238281 134.648438 135.867188 136.394531 135.867188 L 150.128906 135.867188 C 151.839844 135.867188 153.257812 137.238281 153.257812 138.984375 L 153.257812 262.382812 C 153.257812 283.863281 141.5625 296.191406 121.195312 296.191406 C 114.9375 296.191406 110.003906 296.191406 96.246094 289.40625 L 67.851562 273.058594 C 60.84375 269.003906 56.496094 261.421875 56.496094 253.300781 L 56.496094 128.320312 C 56.496094 120.199219 60.84375 112.628906 67.851562 108.585938 L 176.15625 46.007812 C 183.011719 42.128906 192.117188 42.128906 198.914062 46.007812 L 307.207031 108.585938 C 314.226562 112.640625 318.585938 120.210938 318.585938 128.320312 L 318.585938 253.300781 C 318.585938 261.421875 314.226562 268.96875 307.207031 273.058594 L 198.914062 335.578125 C 195.445312 337.582031 191.519531 338.613281 187.511719 338.613281 Z M 220.933594 252.503906 C 173.53125 252.503906 163.605469 230.742188 163.605469 212.496094 C 163.605469 210.761719 164.988281 209.378906 166.722656 209.378906 L 180.726562 209.378906 C 182.285156 209.378906 183.597656 210.503906 183.832031 212.027344 C 185.941406 226.277344 192.234375 233.484375 220.910156 233.484375 C 243.714844 233.484375 253.429688 228.316406 253.429688 216.222656 C 253.429688 209.238281 250.6875 204.070312 215.226562 200.589844 C 185.601562 197.660156 167.261719 191.109375 167.261719 167.414062 C 167.261719 145.558594 185.683594 132.527344 216.5625 132.527344 C 251.261719 132.527344 268.417969 144.5625 270.597656 170.414062 C 270.679688 171.292969 270.363281 172.148438 269.765625 172.816406 C 269.167969 173.449219 268.347656 173.824219 267.46875 173.824219 L 253.40625 173.824219 C 251.953125 173.824219 250.675781 172.792969 250.371094 171.375 C 246.996094 156.375 238.792969 151.582031 216.550781 151.582031 C 191.636719 151.582031 188.742188 160.253906 188.742188 166.757812 C 188.742188 174.644531 192.164062 176.941406 225.785156 181.382812 C 259.066406 185.777344 274.886719 192.011719 274.886719 215.390625 C 274.886719 238.992188 255.222656 252.503906 220.910156 252.503906 Z M 220.933594 252.503906 " fill-opacity="1" fill-rule="nonzero"/></svg>