<svg xmlns="http://www.w3.org/2000/svg" xmlns:xlink="http://www.w3.org/1999/xlink" width="500" zoomAndPan="magnify" viewBox="0 0 375 374.999991" height="500" preserveAspectRatio="xMidYMid meet" version="1.0"><path fill="#f7770f" d="M 212.988281 187.355469 C 212.988281 201.910156 201.191406 213.707031 186.640625 213.707031 C 172.089844 213.707031 160.292969 201.910156 160.292969 187.355469 C 160.292969 172.804688 172.089844 161.007812 186.640625 161.007812 C 201.191406 161.007812 212.988281 172.804688 212.988281 187.355469 Z M 212.988281 187.355469 " fill-opacity="1" fill-rule="nonzero"/><path fill="#f7770f" d="M 186.640625 284.25 C 207.328125 304.363281 227.71875 316.261719 244.152344 316.261719 C 249.539062 316.261719 254.640625 315.128906 258.882812 312.582031 C 273.609375 304.078125 278.996094 282.828125 273.894531 252.515625 C 273.046875 247.128906 271.914062 241.75 270.492188 236.078125 C 276.152344 234.382812 281.253906 232.675781 286.355469 230.980469 C 314.972656 219.929688 330.835938 204.628906 330.835938 187.917969 C 330.835938 170.921875 314.972656 155.621094 286.355469 144.859375 C 281.253906 142.875 276.152344 141.179688 270.492188 139.757812 C 271.914062 134.097656 273.046875 128.710938 273.894531 123.324219 C 278.710938 92.445312 273.332031 70.910156 258.59375 62.40625 C 254.34375 59.863281 249.242188 58.726562 243.867188 58.726562 C 227.71875 58.726562 207.03125 70.625 186.355469 90.738281 C 165.953125 70.625 145.550781 58.726562 129.128906 58.726562 C 123.742188 58.726562 118.640625 59.863281 114.398438 62.40625 C 99.671875 70.910156 94.285156 92.160156 99.386719 122.476562 C 100.234375 127.863281 101.367188 133.238281 102.789062 138.910156 C 97.128906 140.605469 92.027344 142.3125 86.925781 144.011719 C 58.308594 155.058594 42.445312 170.359375 42.445312 187.070312 C 42.445312 204.066406 58.308594 219.367188 86.925781 230.128906 C 92.027344 232.113281 97.128906 233.808594 102.789062 235.230469 C 101.367188 240.894531 100.234375 246.28125 99.386719 251.664062 C 94.570312 281.980469 99.949219 303.515625 114.398438 311.734375 C 118.652344 314.289062 123.753906 315.414062 129.128906 315.414062 C 145.5625 315.976562 165.964844 304.078125 186.640625 284.25 Z M 170.765625 246.003906 C 175.867188 246.289062 181.253906 246.289062 186.628906 246.289062 C 192.003906 246.289062 197.390625 246.289062 202.492188 246.003906 C 197.390625 252.800781 192.003906 259.035156 186.628906 264.984375 C 181.242188 259.035156 175.867188 252.800781 170.765625 246.003906 Z M 135.636719 216.824219 C 138.46875 221.636719 141.023438 226.175781 144.140625 230.703125 C 135.363281 229.570312 127.144531 228.148438 119.214844 226.453125 C 121.769531 218.804688 124.601562 210.863281 127.992188 202.933594 C 130.261719 207.460938 132.808594 212.285156 135.636719 216.8125 Z M 119.203125 148.539062 C 127.132812 146.839844 135.351562 145.421875 144.132812 144.285156 C 141.300781 148.824219 138.46875 153.351562 135.628906 158.164062 C 132.785156 162.980469 130.242188 167.519531 127.984375 172.332031 C 124.304688 164.113281 121.460938 156.183594 119.203125 148.527344 Z M 134.789062 187.355469 C 138.46875 179.710938 142.433594 172.054688 146.972656 164.410156 C 151.226562 157.042969 156.039062 149.683594 160.851562 142.3125 C 169.355469 141.753906 177.851562 141.464844 186.640625 141.464844 C 195.707031 141.464844 204.210938 141.753906 212.429688 142.3125 C 217.527344 149.683594 222.054688 157.042969 226.308594 164.410156 C 230.847656 172.054688 234.8125 179.710938 238.492188 187.355469 C 234.8125 195 230.847656 202.65625 226.308594 210.300781 C 222.054688 217.671875 217.242188 225.03125 212.429688 232.398438 C 203.925781 232.960938 195.429688 233.246094 186.640625 233.246094 C 177.574219 233.246094 169.070312 232.960938 160.851562 232.398438 C 155.753906 225.03125 151.226562 217.671875 146.972656 210.300781 C 142.433594 202.648438 138.46875 195 134.789062 187.355469 Z M 245.574219 172.054688 L 237.929688 157.890625 C 235.097656 153.074219 232.542969 148.539062 229.425781 144.011719 C 238.203125 145.144531 246.421875 146.566406 254.355469 148.261719 C 251.808594 156.195312 248.96875 164.125 245.574219 172.066406 Z M 245.574219 202.65625 C 248.976562 210.589844 251.808594 218.519531 254.355469 226.175781 C 246.421875 227.871094 238.203125 229.292969 229.425781 230.429688 C 232.257812 225.890625 235.085938 221.363281 237.929688 216.546875 C 240.484375 212.296875 243.03125 207.480469 245.574219 202.667969 Z M 252.085938 300.972656 C 249.816406 302.394531 246.984375 302.953125 243.867188 302.953125 C 229.988281 302.953125 212.703125 291.621094 195.707031 274.621094 C 203.925781 265.84375 211.855469 255.917969 219.785156 244.871094 C 233.105469 243.734375 245.851562 241.75 257.757812 238.921875 C 259.179688 244.019531 260.027344 249.121094 260.875 254.222656 C 264.839844 278.300781 261.722656 295.585938 252.09375 300.972656 Z M 266.824219 151.65625 C 298.558594 160.722656 317.539062 174.601562 317.539062 187.355469 C 317.539062 198.40625 304.507812 209.453125 281.5625 218.246094 C 277.023438 219.941406 271.933594 221.648438 266.835938 223.058594 C 263.15625 211.4375 258.617188 199.539062 252.953125 187.355469 C 258.617188 175.171875 263.441406 163.277344 266.835938 151.65625 Z M 244.152344 71.757812 C 247.269531 71.757812 249.816406 72.320312 252.371094 73.742188 C 261.722656 79.128906 265.117188 96.125 261.152344 120.492188 C 260.300781 125.304688 259.167969 130.40625 258.03125 135.792969 C 246.136719 133.238281 233.378906 131.253906 220.0625 129.84375 C 212.417969 118.796875 204.199219 108.882812 195.980469 100.089844 C 212.980469 83.371094 230.261719 71.757812 244.140625 71.757812 Z M 202.503906 128.710938 C 197.402344 128.421875 192.015625 128.421875 186.640625 128.421875 C 181.265625 128.421875 175.878906 128.421875 170.777344 128.710938 C 175.878906 121.914062 181.265625 115.679688 186.640625 109.730469 C 192.027344 115.679688 197.402344 122.199219 202.503906 128.710938 Z M 121.1875 73.742188 C 123.457031 72.320312 126.285156 71.757812 129.402344 71.757812 C 143.285156 71.757812 160.566406 83.09375 177.5625 100.089844 C 169.347656 108.871094 161.414062 118.785156 153.484375 129.84375 C 140.164062 130.980469 127.421875 132.960938 115.511719 135.792969 C 114.09375 130.691406 113.242188 125.59375 112.394531 120.492188 C 108.429688 96.410156 111.546875 79.414062 121.175781 73.742188 Z M 106.457031 223.058594 C 74.722656 213.992188 55.742188 200.113281 55.742188 187.355469 C 55.742188 176.308594 68.773438 165.257812 91.71875 156.480469 C 96.257812 154.785156 101.347656 153.074219 106.445312 151.667969 C 110.125 163.289062 114.664062 175.183594 120.328125 187.367188 C 114.664062 199.550781 109.839844 211.734375 106.445312 223.070312 Z M 112.40625 254.222656 C 113.253906 249.40625 114.390625 244.308594 115.523438 238.921875 C 127.421875 241.476562 140.175781 243.460938 153.496094 244.871094 C 161.140625 255.917969 169.355469 265.832031 177.574219 274.621094 C 160.578125 291.332031 143.292969 302.953125 129.414062 302.953125 C 126.296875 302.953125 123.753906 302.394531 121.195312 300.972656 C 111.558594 295.585938 108.453125 278.300781 112.417969 254.222656 Z M 112.40625 254.222656 " fill-opacity="1" fill-rule="nonzero"/></svg>